<svg xmlns="http://www.w3.org/2000/svg" xmlns:xlink="http://www.w3.org/1999/xlink" width="1000" zoomAndPan="magnify" viewBox="0 0 750 749.999995" height="1000" preserveAspectRatio="xMidYMid meet" version="1.2"><defs><clipPath id="473f6c98fe"><path d="M 45.3125 45.3125 L 704.6875 45.3125 L 704.6875 704.6875 L 45.3125 704.6875 Z M 45.3125 45.3125 "/></clipPath><clipPath id="dc2238e616"><path d="M 375 45.3125 C 192.917969 45.3125 45.3125 192.917969 45.3125 375 C 45.3125 557.082031 192.917969 704.6875 375 704.6875 C 557.082031 704.6875 704.6875 557.082031 704.6875 375 C 704.6875 192.917969 557.082031 45.3125 375 45.3125 Z M 375 45.3125 "/></clipPath><clipPath id="d42ac4fe22"><path d="M 0.3125 0.3125 L 659.6875 0.3125 L 659.6875 659.6875 L 0.3125 659.6875 Z M 0.3125 0.3125 "/></clipPath><clipPath id="127f02c630"><path d="M 330 0.3125 C 147.917969 0.3125 0.3125 147.917969 0.3125 330 C 0.3125 512.082031 147.917969 659.6875 330 659.6875 C 512.082031 659.6875 659.6875 512.082031 659.6875 330 C 659.6875 147.917969 512.082031 0.3125 330 0.3125 Z M 330 0.3125 "/></clipPath><clipPath id="2e6b5558b4"><rect x="0" width="660" y="0" height="660"/></clipPath><clipPath id="2ff9d1e040"><path d="M 56.457031 56.457031 L 693.542969 56.457031 L 693.542969 693.542969 L 56.457031 693.542969 Z M 56.457031 56.457031 "/></clipPath><clipPath id="70398c30b2"><path d="M 375 56.457031 C 199.074219 56.457031 56.457031 199.074219 56.457031 375 C 56.457031 550.925781 199.074219 693.542969 375 693.542969 C 550.925781 693.542969 693.542969 550.925781 693.542969 375 C 693.542969 199.074219 550.925781 56.457031 375 56.457031 Z M 375 56.457031 "/></clipPath><clipPath id="9c18336845"><path d="M 0.457031 0.457031 L 637.542969 0.457031 L 637.542969 637.542969 L 0.457031 637.542969 Z M 0.457031 0.457031 "/></clipPath><clipPath id="bf80dca957"><path d="M 319 0.457031 C 143.074219 0.457031 0.457031 143.074219 0.457031 319 C 0.457031 494.925781 143.074219 637.542969 319 637.542969 C 494.925781 637.542969 637.542969 494.925781 637.542969 319 C 637.542969 143.074219 494.925781 0.457031 319 0.457031 Z M 319 0.457031 "/></clipPath><clipPath id="c4f93433a1"><rect x="0" width="638" y="0" height="638"/></clipPath><clipPath id="990841dc0b"><path d="M 244 170.136719 L 506 170.136719 L 506 532.386719 L 244 532.386719 Z M 244 170.136719 "/></clipPath></defs><g id="517eb435a3"><g clip-rule="nonzero" clip-path="url(#473f6c98fe)"><g clip-rule="nonzero" clip-path="url(#dc2238e616)"><g transform="matrix(1,0,0,1,45,45)"><g clip-path="url(#2e6b5558b4)"><g clip-rule="nonzero" clip-path="url(#d42ac4fe22)"><g clip-rule="nonzero" clip-path="url(#127f02c630)"><path style=" stroke:none;fill-rule:nonzero;fill:#5d82bc;fill-opacity:1;" d="M 0.3125 0.3125 L 659.6875 0.3125 L 659.6875 659.6875 L 0.3125 659.6875 Z M 0.3125 0.3125 "/></g></g></g></g></g></g><g clip-rule="nonzero" clip-path="url(#2ff9d1e040)"><g clip-rule="nonzero" clip-path="url(#70398c30b2)"><g transform="matrix(1,0,0,1,56,56)"><g clip-path="url(#c4f93433a1)"><g clip-rule="nonzero" clip-path="url(#9c18336845)"><g clip-rule="nonzero" clip-path="url(#bf80dca957)"><path style=" stroke:none;fill-rule:nonzero;fill:#769edd;fill-opacity:1;" d="M 0.457031 0.457031 L 637.542969 0.457031 L 637.542969 637.542969 L 0.457031 637.542969 Z M 0.457031 0.457031 "/></g></g></g></g></g></g><g clip-rule="nonzero" clip-path="url(#990841dc0b)"><path style=" stroke:none;fill-rule:nonzero;fill:#000000;fill-opacity:1;" d="M 482.945312 325.734375 L 381.945312 173.757812 C 380.335938 171.34375 377.921875 170.136719 375.105469 170.136719 C 372.289062 170.136719 369.875 171.34375 368.265625 173.757812 L 267.265625 325.734375 C 240.304688 366.339844 237.085938 416.597656 259.21875 460.421875 C 280.144531 502.636719 320.382812 529.171875 366.65625 531.988281 C 369.472656 531.988281 372.289062 532.386719 375.105469 532.386719 C 377.921875 532.386719 380.738281 532.386719 383.554688 531.988281 C 429.832031 529.171875 470.070312 502.636719 490.992188 460.421875 C 513.125 416.195312 509.90625 365.9375 482.945312 325.734375 Z M 476.910156 452.78125 C 458.402344 489.769531 423.394531 513.089844 382.75 515.503906 C 377.519531 515.90625 372.691406 515.90625 367.460938 515.503906 C 326.820312 513.492188 291.8125 489.769531 273.300781 452.78125 C 253.988281 414.183594 256.804688 369.960938 280.546875 334.175781 L 375.105469 192.652344 L 469.667969 334.578125 C 493.410156 369.960938 496.226562 414.183594 476.910156 452.78125 Z M 476.910156 452.78125 "/></g></g></svg>